<svg width="17" height="16" viewBox="0 0 17 16" fill="none" xmlns="http://www.w3.org/2000/svg">
<path d="M8.84179 2.75006C8.84179 2.33585 8.506 2.00006 8.09179 2.00006C7.67757 2.00006 7.34179 2.33585 7.34179 2.75006V7.25003H2.8418C2.42758 7.25003 2.0918 7.58581 2.0918 8.00003C2.0918 8.41424 2.42758 8.75003 2.8418 8.75003H7.34179L7.3418 13.25C7.3418 13.6642 7.67758 14 8.0918 14C8.50601 14 8.8418 13.6642 8.8418 13.25L8.84179 8.75003H13.3418C13.756 8.75003 14.0918 8.41424 14.0918 8.00003C14.0918 7.58581 13.756 7.25003 13.3418 7.25003H8.84179V2.75006Z" fill="white"/>
</svg>
