<svg width="10" height="16" viewBox="0 0 10 16" fill="none" xmlns="http://www.w3.org/2000/svg">
<path d="M5 15.8334C2.51823 15.8334 0.5 13.8151 0.5 11.3334V3.33335C0.5 1.58726 1.92057 0.166687 3.66667 0.166687C5.41276 0.166687 6.83333 1.58726 6.83333 3.33335V10.6667C6.83333 11.6771 6.01042 12.5 5 12.5C3.98958 12.5 3.16667 11.6771 3.16667 10.6667V4.66669C3.16667 4.39065 3.39063 4.16669 3.66667 4.16669C3.94271 4.16669 4.16667 4.39065 4.16667 4.66669V10.6667C4.16667 11.1263 4.54036 11.5 5 11.5C5.45964 11.5 5.83333 11.1263 5.83333 10.6667V3.33335C5.83333 2.13869 4.86198 1.16669 3.66667 1.16669C2.47135 1.16669 1.5 2.13869 1.5 3.33335V11.3334C1.5 13.263 3.07031 14.8334 5 14.8334C6.92969 14.8334 8.5 13.263 8.5 11.3334V4.66669C8.5 4.39065 8.72396 4.16669 9 4.16669C9.27604 4.16669 9.5 4.39065 9.5 4.66669V11.3334C9.5 13.8151 7.48177 15.8334 5 15.8334Z" fill="#1883A6"/>
</svg>
