<svg width="17" height="14" viewBox="0 0 17 14" fill="none" xmlns="http://www.w3.org/2000/svg">
<path d="M3.65513 14C3.98846 14 4.3218 13.9167 4.65513 13.75C5.8218 13 4.98846 11.5833 4.15513 10.25C3.8218 9.75 3.3218 8.83333 3.23846 8.41667C3.8218 8.58333 5.15513 9.83333 5.98846 10.5833C7.98846 12.3333 9.98846 14.1667 11.4051 12.8333C12.7385 11.5833 11.0718 9.41667 9.0718 6.75C8.0718 5.33333 5.65513 2.16667 6.23846 1.58333H6.3218C7.98846 1.58333 12.7385 6.08333 15.5718 9.25C15.9051 9.58333 16.4051 9.58333 16.7385 9.33333C17.0718 9 17.0718 8.5 16.8218 8.16667C15.5718 6.83333 9.3218 0 6.3218 0C5.5718 0 5.23846 0.333333 4.98846 0.583333C3.48846 2.16667 5.5718 4.91667 7.73846 7.91667C8.65513 9.16667 10.0718 11.0833 10.2385 11.8333C9.65513 11.8333 8.0718 10.3333 7.15513 9.5C5.40513 7.91667 3.8218 6.5 2.5718 7C2.15513 7.16667 1.8218 7.5 1.73846 7.91667C1.40513 8.91667 2.0718 10.0833 2.8218 11.3333C3.0718 11.6667 3.32179 12.25 3.48846 12.5833C3.15513 12.4167 2.65513 12 2.23846 11.5833C1.98846 11.25 1.40513 11.1667 1.07179 11.5C0.738461 11.75 0.655128 12.3333 0.988461 12.6667C1.07179 12.5 2.3218 14 3.65513 14Z" fill="white"/>
</svg>
