<svg width="17" height="15" viewBox="0 0 17 15" fill="none" xmlns="http://www.w3.org/2000/svg">
<path fill-rule="evenodd" clip-rule="evenodd" d="M10.625 0C10.9702 0 11.25 0.279825 11.25 0.625V13.9583C11.25 14.3035 10.9702 14.5833 10.625 14.5833C10.2798 14.5833 10 14.3035 10 13.9583V0.625C10 0.279825 10.2798 0 10.625 0ZM8.125 2.5C8.47017 2.5 8.75 2.77982 8.75 3.125V11.4583C8.75 11.8035 8.47017 12.0833 8.125 12.0833C7.77983 12.0833 7.5 11.8035 7.5 11.4583V3.125C7.5 2.77982 7.77983 2.5 8.125 2.5ZM3.125 3.33333C3.47018 3.33333 3.75 3.61316 3.75 3.95833V10.625C3.75 10.9702 3.47018 11.25 3.125 11.25C2.77982 11.25 2.5 10.9702 2.5 10.625V3.95833C2.5 3.61316 2.77982 3.33333 3.125 3.33333ZM13.125 4.16667C13.4702 4.16667 13.75 4.44649 13.75 4.79167V9.79167C13.75 10.1368 13.4702 10.4167 13.125 10.4167C12.7798 10.4167 12.5 10.1368 12.5 9.79167V4.79167C12.5 4.44649 12.7798 4.16667 13.125 4.16667ZM5.625 5C5.97017 5 6.25 5.27982 6.25 5.625V8.95833C6.25 9.3035 5.97017 9.58333 5.625 9.58333C5.27982 9.58333 5 9.3035 5 8.95833V5.625C5 5.27982 5.27982 5 5.625 5ZM0.625 5.83333C0.970175 5.83333 1.25 6.11317 1.25 6.45833V8.125C1.25 8.47017 0.970175 8.75 0.625 8.75C0.279825 8.75 0 8.47017 0 8.125V6.45833C0 6.11317 0.279825 5.83333 0.625 5.83333ZM15.625 5.83333C15.9702 5.83333 16.25 6.11317 16.25 6.45833V8.125C16.25 8.47017 15.9702 8.75 15.625 8.75C15.2798 8.75 15 8.47017 15 8.125V6.45833C15 6.11317 15.2798 5.83333 15.625 5.83333Z" fill="#1883A6"/>
</svg>
