<svg width="21" height="14" viewBox="0 0 21 14" fill="none" xmlns="http://www.w3.org/2000/svg">
<path d="M2.25 0H18.75C19.9905 0 21 1.0095 21 2.25V11.25C21 12.4905 19.9905 13.5 18.75 13.5H2.25C1.0095 13.5 0 12.4905 0 11.25V2.25C0 1.0095 1.0095 0 2.25 0ZM1.5 11.25C1.5 11.664 1.83675 12 2.25 12H18.75C19.1632 12 19.5 11.664 19.5 11.25V2.25C19.5 1.836 19.1632 1.5 18.75 1.5H2.25C1.83675 1.5 1.5 1.836 1.5 2.25V11.25ZM6.75 9.75C6.75 10.1648 7.086 10.5 7.5 10.5H13.5C13.914 10.5 14.25 10.1648 14.25 9.75C14.25 9.33525 13.914 9 13.5 9H7.5C7.086 9 6.75 9.33525 6.75 9.75ZM15 3.75C15 4.16475 15.336 4.5 15.75 4.5H16.5C16.914 4.5 17.25 4.16475 17.25 3.75C17.25 3.33525 16.914 3 16.5 3H15.75C15.336 3 15 3.33525 15 3.75ZM13.5 3.75C13.5 3.33525 13.164 3 12.75 3H12C11.586 3 11.25 3.33525 11.25 3.75C11.25 4.16475 11.586 4.5 12 4.5H12.75C13.164 4.5 13.5 4.16475 13.5 3.75ZM9.75 3.75C9.75 3.33525 9.414 3 9 3H8.25C7.836 3 7.5 3.33525 7.5 3.75C7.5 4.16475 7.836 4.5 8.25 4.5H9C9.414 4.5 9.75 4.16475 9.75 3.75ZM3.75 3.75C3.75 4.16475 4.086 4.5 4.5 4.5H5.25C5.664 4.5 6 4.16475 6 3.75C6 3.33525 5.664 3 5.25 3H4.5C4.086 3 3.75 3.33525 3.75 3.75ZM15 6.75C15 7.16475 15.336 7.5 15.75 7.5H16.5C16.914 7.5 17.25 7.16475 17.25 6.75C17.25 6.33525 16.914 6 16.5 6H15.75C15.336 6 15 6.33525 15 6.75ZM13.5 6.75C13.5 6.33525 13.164 6 12.75 6H12C11.586 6 11.25 6.33525 11.25 6.75C11.25 7.16475 11.586 7.5 12 7.5H12.75C13.164 7.5 13.5 7.16475 13.5 6.75ZM9.75 6.75C9.75 6.33525 9.414 6 9 6H8.25C7.836 6 7.5 6.33525 7.5 6.75C7.5 7.16475 7.836 7.5 8.25 7.5H9C9.414 7.5 9.75 7.16475 9.75 6.75ZM3.75 6.75C3.75 7.16475 4.086 7.5 4.5 7.5H5.25C5.664 7.5 6 7.16475 6 6.75C6 6.33525 5.664 6 5.25 6H4.5C4.086 6 3.75 6.33525 3.75 6.75Z" fill="white"/>
</svg>
